# xmcd
# 
# Track frame offsets:
#     150
#     15230
#     29180
#     49058
#     63650
#     82570
#     105595
#     123586
#     137522
#     152369
# 
# Disc length: 2239
# 
# Revision: 1
# Processed by: cddbd v1.5.2PL0 Copyright (c) Steve Scherf et al.
# Submitted via: fre:ac v1.0.31
# 
DISCID=7308bd0a
DTITLE=Texas To The Bone - Texas To The Bone Volume III
DYEAR=2002
DGENRE=Country
TTITLE0=Clay Baker - A Day Late And A Darlin' Short
TTITLE1=Ed Burleson - No Closing Time
TTITLE2=Robert Earl Keen - I'm Comin' Home
TTITLE3=Eleven Hundred Springs - The Ballad Of Anna Stone
TTITLE4=Reckless Kelly - Lonely All The Time
TTITLE5=Mark Merritt - Watered Down, Washed Up
TTITLE6=Matt Powell - Dragonfly
TTITLE7=Jason Allen - Cryin' For Their Mamas
TTITLE8=Johnny Wolfe - Say Ya Do
TTITLE9=Albert and Gage - Life Is A Miracle
EXTD=YEAR: 2002
EXTT0=
EXTT1=
EXTT2=
EXTT3=
EXTT4=
EXTT5=
EXTT6=
EXTT7=
EXTT8=
EXTT9=
PLAYORDER=
